HIERARCHY
ROOT Hips
{
    OFFSET 0.000000 0.000000 0.000000
    CHANNELS 6 Xposition Yposition Zposition Zrotation Xrotation Yrotation
    JOINT Spine
    {
        OFFSET -0.000000 14.517291 0.000000
        CHANNELS 3 Zrotation Xrotation Yrotation
        JOINT Spine1
        {
            OFFSET -0.000000 37.558300 0.000000
            CHANNELS 3 Zrotation Xrotation Yrotation
            JOINT Neck
            {
                OFFSET -0.000000 37.404057 3.400369
                CHANNELS 3 Zrotation Xrotation Yrotation
                JOINT Head
                {
                    OFFSET -0.000000 24.785618 -3.540803
                    CHANNELS 3 Zrotation Xrotation Yrotation
                    End Site
                    {
                        OFFSET -0.000000 35.408028 0.000000
                    }
                }
            }
            JOINT LeftShoulder
            {
                OFFSET 6.992933 33.973492 -0.192664
                CHANNELS 3 Zrotation Xrotation Yrotation
                JOINT LeftArm
                {
                    OFFSET 21.527611 0.000000 0.000000
                    CHANNELS 3 Zrotation Xrotation Yrotation
                    JOINT LeftForeArm
                    {
                        OFFSET 56.353916 0.000000 0.000000
                        CHANNELS 3 Zrotation Xrotation Yrotation
                        JOINT LeftHand
                        {
                            OFFSET 47.774071 0.000000 0.000000
                            CHANNELS 3 Zrotation Xrotation Yrotation
                            End Site
                            {
                                OFFSET 26.556021 0.000000 0.000000
                            }
                        }
                    }
                }
            }
            JOINT RightShoulder
            {
                OFFSET -7.065357 33.973492 -0.192664
                CHANNELS 3 Zrotation Xrotation Yrotation
                JOINT RightArm
                {
                    OFFSET -21.527611 0.000000 0.000000
                    CHANNELS 3 Zrotation Xrotation Yrotation
                    JOINT RightForeArm
                    {
                        OFFSET -56.353916 0.000000 0.000000
                        CHANNELS 3 Zrotation Xrotation Yrotation
                        JOINT RightHand
                        {
                            OFFSET -47.774071 0.000000 0.000000
                            CHANNELS 3 Zrotation Xrotation Yrotation
                            End Site
                            {
                                OFFSET -26.556021 0.000000 0.000000
                            }
                        }
                    }
                }
            }
        }
    }
    JOINT LeftUpLeg
    {
        OFFSET 17.704014 0.000000 0.000000
        CHANNELS 3 Zrotation Xrotation Yrotation
        JOINT LeftLeg
        {
            OFFSET -0.000000 -81.181816 0.000000
            CHANNELS 3 Zrotation Xrotation Yrotation
            JOINT LeftFoot
            {
                OFFSET -0.000000 -62.821102 0.000000
                CHANNELS 3 Zrotation Xrotation Yrotation
                JOINT LeftToeBase
                {
                    OFFSET -0.000000 -11.507608 26.556021
                    CHANNELS 3 Zrotation Xrotation Yrotation
                    End Site
                    {
                        OFFSET -0.000000 0.000000 7.081605
                    }
                }
            }
        }
    }
    JOINT RightUpLeg
    {
        OFFSET -17.704014 0.000000 0.000000
        CHANNELS 3 Zrotation Xrotation Yrotation
        JOINT RightLeg
        {
            OFFSET -0.000000 -81.181816 0.000000
            CHANNELS 3 Zrotation Xrotation Yrotation
            JOINT RightFoot
            {
                OFFSET -0.000000 -62.821102 0.000000
                CHANNELS 3 Zrotation Xrotation Yrotation
                JOINT RightToeBase
                {
                    OFFSET -0.000000 -11.507608 26.556021
                    CHANNELS 3 Zrotation Xrotation Yrotation
                    End Site
                    {
                        OFFSET -0.000000 0.000000 7.081605
                    }
                }
            }
        }
    }
}
MOTION
Frames:    13
Frame Time:    0.008333
-4.756553    152.277405    -112.669685    -6.992927    -6.770836    36.456020    0.836652    -1.015105    0.819400    -1.355065    0.385733    0.275417    14.445950    -5.569476    -4.958818    5.350955    6.372772    -7.573416    10.579794    5.101710    -22.684629    -25.951971    20.584951    -69.338135    -15.668356    -2.199873    -86.919937    17.756353    -17.759939    -5.266294    -12.118856    -6.922817    -2.124590    24.576164    -25.493431    65.133087    -10.071077    -10.259593    44.323257    -9.948017    -8.785602    29.444502    15.713037    -19.042475    -2.340199    -20.899843    50.978474    -10.725181    15.750057    -26.794168    48.632278    0.000000    0.000000    0.000000    -21.423338    -9.141050    -11.462065    5.165597    15.406752    -15.931569    7.874341    26.908718    -24.796896    0.000000    0.000000    0.000000    
-4.379432    152.421539    -113.028145    -7.014656    -6.849616    36.209190    0.849824    -0.913503    0.913110    -1.298944    0.383950    0.306878    14.457803    -5.550238    -4.898242    5.352341    6.357220    -7.509334    10.508602    5.070402    -22.640923    -25.877722    20.556301    -69.228004    -15.675424    -2.054600    -86.891487    17.666265    -17.638895    -5.415922    -12.117646    -6.867241    -2.074775    24.614206    -25.518108    65.173676    -10.155116    -10.286394    44.343800    -9.908190    -8.760102    29.381741    15.636611    -18.803476    -2.203392    -20.872221    50.708839    -10.757492    15.888732    -26.631182    48.688831    0.000000    0.000000    0.000000    -21.401075    -9.672912    -11.727931    5.440636    15.861266    -15.386315    7.029723    26.744797    -23.611183    0.000000    0.000000    0.000000    
-4.013708    152.556824    -113.371155    -7.030993    -6.905287    35.962170    0.875154    -0.855695    0.992179    -1.297420    0.421786    0.333611    14.386936    -5.473917    -4.899722    5.493153    6.270757    -7.470505    10.461802    5.052799    -22.575464    -25.892992    20.460732    -69.099983    -15.776680    -1.815388    -86.855492    17.776428    -17.511396    -5.482305    -12.128564    -6.817957    -2.008289    24.666624    -25.543417    65.214851    -10.172285    -10.351279    44.401005    -9.971654    -8.829935    29.391827    15.547788    -18.585907    -2.047483    -20.822092    50.461693    -10.821821    15.991846    -26.486168    48.749512    0.000000    0.000000    0.000000    -21.360365    -10.183843    -12.048535    5.704063    16.219969    -14.771141    6.398110    26.409714    -22.589685    0.000000    0.000000    0.000000    
-3.662657    152.694611    -113.674866    -7.057360    -6.996119    35.744499    0.940353    -0.809698    1.044019    -1.321253    0.483401    0.351632    14.343428    -5.407610    -4.863606    5.597416    6.225303    -7.404316    10.411095    5.054022    -22.487480    -25.823675    20.412207    -69.014603    -15.810788    -1.709943    -86.833450    17.862787    -17.448692    -5.533422    -12.156573    -6.797398    -1.951492    24.780592    -25.538761    65.290413    -10.178830    -10.356877    44.419983    -9.907474    -8.818759    29.442045    15.499183    -18.358154    -1.890240    -20.759493    50.236858    -10.934287    16.091192    -26.334686    48.803608    0.000000    0.000000    0.000000    -21.248167    -10.603510    -12.241802    6.014798    16.402187    -14.355658    5.870736    26.037603    -21.762697    0.000000    0.000000    0.000000    
-3.317484    152.837723    -113.981918    -7.081627    -7.091715    35.550571    0.976986    -0.736640    1.086907    -1.280242    0.526533    0.366430    14.346321    -5.399131    -4.785357    5.572230    6.233845    -7.324874    10.331138    5.040047    -22.436832    -25.941044    20.305614    -68.869713    -15.941556    -1.451280    -86.745827    17.966692    -17.314426    -5.585387    -12.194161    -6.724277    -1.927366    24.822750    -25.557764    65.387260    -10.209225    -10.413299    44.397346    -9.935215    -8.874246    29.459091    15.464643    -18.124205    -1.849335    -20.860420    49.945393    -10.867875    16.193260    -26.174042    48.864414    0.000000    0.000000    0.000000    -21.096231    -10.966524    -12.539207    6.267326    16.438810    -13.862624    5.517280    25.718138    -21.084002    0.000000    0.000000    0.000000    
-2.985852    152.987427    -114.279770    -7.144632    -7.140947    35.370777    1.034247    -0.749092    1.089891    -1.259588    0.578763    0.367730    14.373383    -5.269454    -4.752104    5.516550    6.134350    -7.279176    10.242469    5.075708    -22.321226    -25.947405    20.264435    -68.798820    -15.898554    -1.385752    -86.659172    17.797489    -17.190304    -5.645880    -12.236013    -6.713123    -1.814813    24.841091    -25.545523    65.400269    -10.201941    -10.419174    44.418552    -9.875821    -8.855767    29.353104    15.420961    -17.957975    -1.731504    -20.812553    49.684692    -10.850662    16.220856    -26.048662    48.820850    0.000000    0.000000    0.000000    -20.899107    -11.367231    -12.997519    6.423934    16.428471    -13.460841    5.474275    25.264879    -20.604330    0.000000    0.000000    0.000000    
-2.670342    153.147903    -114.551353    -7.220804    -7.220033    35.199512    1.106532    -0.760942    1.093812    -1.214816    0.648534    0.369414    14.264803    -5.366717    -4.671002    5.598148    6.386054    -7.190457    10.155331    5.109580    -22.198990    -26.055927    20.158175    -68.730606    -16.018847    -1.192303    -86.524849    17.814404    -17.090275    -5.687696    -12.295604    -6.679505    -1.747376    24.760147    -25.465620    65.422508    -10.313911    -10.500360    44.341438    -9.785802    -8.886629    29.467016    15.420398    -17.780870    -1.624439    -20.777977    49.433601    -10.832193    16.219007    -25.912395    48.756840    0.000000    0.000000    0.000000    -20.597172    -11.703008    -13.500660    6.432600    16.261700    -13.212969    5.716106    24.912758    -20.213924    0.000000    0.000000    0.000000    
-2.361145    153.297836    -114.822922    -7.294244    -7.277011    35.054504    0.920247    -0.340912    1.439212    -0.958766    -0.110884    0.478524    14.721024    -5.161426    -4.858592    5.109215    6.390511    -7.492888    10.204466    5.454543    -22.750032    -26.589073    19.976931    -68.638321    -16.361143    -0.728844    -86.064774    18.077063    -16.881514    -5.836256    -11.987587    -6.358821    -2.218721    24.487761    -25.344072    65.480804    -10.130418    -10.428776    44.477940    -9.811056    -8.881740    29.465908    15.415184    -17.622591    -1.562802    -20.818962    49.145611    -10.752603    16.226213    -25.780081    48.708572    0.000000    0.000000    0.000000    -20.278980    -12.054979    -14.088226    6.333270    16.097780    -13.006516    6.229451    24.469446    -20.139717    0.000000    0.000000    0.000000    
-2.054237    153.443359    -115.063858    -7.367474    -7.339144    34.947666    1.271424    -0.818047    1.055846    -1.262137    0.748413    0.356585    14.445044    -5.203471    -4.566632    5.396523    6.394075    -7.114580    10.149245    5.184736    -22.014000    -26.281830    20.086033    -68.690819    -16.227583    -1.088538    -86.280090    18.035601    -17.119978    -5.602349    -12.249187    -6.642785    -1.628919    24.620043    -25.383909    65.490288    -10.275606    -10.538365    44.261974    -9.689035    -8.923213    29.466640    15.401288    -17.476194    -1.476585    -20.772778    48.910435    -10.767256    16.228743    -25.658352    48.650948    0.000000    0.000000    0.000000    -19.927038    -12.338686    -14.629933    6.190556    15.840886    -12.934949    6.647273    24.079861    -19.874355    0.000000    0.000000    0.000000    
-1.743204    153.582336    -115.314125    -7.437973    -7.382292    34.810757    1.399952    -0.866976    1.052450    -1.341554    0.801156    0.355973    14.459820    -5.177913    -4.541361    5.378368    6.500813    -7.094499    10.104894    5.182639    -21.930737    -26.396843    20.084328    -68.626564    -16.324190    -1.028295    -86.176407    17.986565    -17.115984    -5.557666    -12.233484    -6.599596    -1.567296    24.517950    -25.335356    65.501381    -10.290758    -10.576246    44.252419    -9.575652    -8.926346    29.465525    15.382856    -17.331202    -1.348077    -20.728043    48.671001    -10.807343    16.234913    -25.545429    48.624432    0.000000    0.000000    0.000000    -19.519815    -12.665364    -15.159329    5.870006    15.581065    -12.974369    6.884028    23.715494    -19.342901    0.000000    0.000000    0.000000    
-1.445440    153.709656    -115.546730    -7.500417    -7.420207    34.723003    1.471053    -0.904659    1.038206    -1.324248    0.827542    0.351081    14.475970    -5.250527    -4.479305    5.246671    6.741328    -7.064719    10.053344    5.236816    -21.862995    -26.469460    20.104065    -68.642822    -16.448484    -1.125587    -86.171417    18.078978    -17.268320    -5.170370    -12.296422    -6.571671    -1.582234    24.586134    -25.358091    65.629120    -10.142320    -10.454615    44.243214    -9.567139    -8.870874    29.554457    15.356702    -17.198601    -1.274904    -20.710289    48.422451    -10.845788    16.267189    -25.424461    48.613235    0.000000    0.000000    0.000000    -19.206573    -12.919955    -15.364458    5.843342    15.235456    -13.166374    7.081218    23.299803    -19.132738    0.000000    0.000000    0.000000    
-1.143250    153.832031    -115.765167    -7.535929    -7.473959    34.637478    1.566532    -0.914277    1.026420    -1.368189    0.828751    0.347165    14.387522    -5.149775    -4.498808    5.340620    6.780488    -7.048641    9.987804    5.274816    -21.826990    -26.534979    20.143345    -68.602287    -16.545494    -1.188578    -86.119263    18.051271    -17.398792    -5.138896    -12.320467    -6.580307    -1.515606    24.534502    -25.320726    65.589211    -10.033883    -10.389776    44.285721    -9.524042    -8.831910    29.529348    15.300548    -17.032904    -1.106181    -20.540377    48.214363    -11.009074    16.279539    -25.326674    48.559040    0.000000    0.000000    0.000000    -18.854801    -13.161708    -15.597999    5.693563    14.905796    -13.285316    6.998206    22.902931    -18.754379    0.000000    0.000000    0.000000    
-0.842456    153.939026    -115.993431    -7.547308    -7.487404    34.559574    1.628209    -0.936761    1.039050    -1.423005    0.824318    0.351547    14.433611    -5.160450    -4.475964    5.235772    6.967174    -7.052650    9.967935    5.317719    -21.814165    -26.635836    20.134174    -68.604897    -16.688381    -1.193303    -86.045273    18.201660    -17.504683    -5.020449    -12.333362    -6.496377    -1.521212    24.497490    -25.334854    65.643700    -9.978554    -10.327621    44.305954    -9.445174    -8.774901    29.595228    15.187057    -16.899881    -0.950827    -20.358532    48.025845    -11.113218    16.245487    -25.259523    48.462341    0.000000    0.000000    0.000000    -18.530401    -13.415755    -15.722466    5.459924    14.561285    -13.311175    7.025318    22.519495    -18.479368    0.000000    0.000000    0.000000    
